<svg width="16" height="18" viewBox="0 0 16 18" fill="none" xmlns="http://www.w3.org/2000/svg">
<path d="M15.8386 16.329L12.6812 13.0262C13.8064 11.5347 14.3426 9.64894 14.1797 7.7566C14.0168 5.86425 13.1671 4.10907 11.8053 2.85175C10.4435 1.59443 8.67303 0.930508 6.85772 0.99642C5.04242 1.06233 3.3202 1.85308 2.04501 3.20614C0.76983 4.5592 0.0385559 6.37179 0.00148151 8.2714C-0.0355929 10.171 0.624349 12.0133 1.84568 13.4197C3.067 14.826 4.75694 15.6897 6.56816 15.833C8.37938 15.9764 10.1743 15.3886 11.584 14.1905L14.7414 17.4932C14.8943 17.6113 15.0827 17.6679 15.2722 17.6524C15.4616 17.6369 15.6394 17.5504 15.7728 17.4089C15.9062 17.2673 15.9863 17.0801 15.9984 16.8818C16.0105 16.6834 15.9538 16.4871 15.8386 16.329ZM7.15577 14.1905C6.06293 14.1905 4.99464 13.8515 4.08598 13.2164C3.17732 12.5813 2.46911 11.6786 2.0509 10.6225C1.63269 9.56639 1.52327 8.40428 1.73647 7.28311C1.94967 6.16195 2.47592 5.13209 3.24867 4.32378C4.02142 3.51546 5.00597 2.965 6.0778 2.74198C7.14964 2.51897 8.26062 2.63343 9.27027 3.07088C10.2799 3.50834 11.1429 4.24915 11.75 5.19962C12.3572 6.1501 12.6812 7.26756 12.6812 8.41069C12.6812 9.94358 12.0991 11.4137 11.0629 12.4976C10.0266 13.5815 8.62121 14.1905 7.15577 14.1905Z" fill="#1D1D1B"/>
</svg>
