<svg xmlns="http://www.w3.org/2000/svg" width="1122.52" height="631.181" xmlns:v="https://vecta.io/nano"><defs><clipPath id="A"><path d="M0 473.386h841.89V0H0z"/></clipPath></defs><g clip-path="url(#A)" transform="matrix(1.333333 0 0 -1.333333 0 631.18133)"><path d="M24.221 116.896v71.456h12.92c6.759-31.017 39.956-35.878 44.999-35.878-5.043-16.058-5.043-35.578-5.043-35.578zm0 270.997s21.719-27.079 28.02-58.859l10.38-86.238s-20.761-8.822-25.48-30.523h-12.92zm81.36-241.402c24.098-3.815 25.02-29.277 25.02-29.277h-28.783c0 14.641 1.723 22.659 3.763 29.277m36.994 87.801s10.544-39.017 27.384-64.519c-6.301-4.098-27.384-18.416-27.384-18.416l-27.396 18.416c16.84 25.502 27.396 64.519 27.396 64.519m40.743-117.078h-28.782s.923 25.462 25.022 29.277c2.039-6.618 3.76-14.636 3.76-29.277m-28.477-72.383v48.784h24.557s-2.68-28.483-24.557-48.784m-24.544 0c-21.877 20.301-24.559 48.784-24.559 48.784h24.559zm117.7 143.521h12.901v-71.456H208.04s0 19.52-5.042 35.578c5.042 0 38.239 4.861 44.999 35.878m-25.48 54.444l10.38 86.238c6.301 31.78 28.001 58.859 28.001 58.859v-175.62h-12.901c-4.72 21.701-25.48 30.523-25.48 30.523M128.398 13.973s13.541-11.638 14.177-15.418c.623 3.78 14.165 15.418 14.165 15.418 42.637 31.003 48.461 79.642 48.461 79.642h79.936v345.097s-59.958-27.856-76.479-107.639l-12.261-107.638s1.88.636 5.66.636 23.763-5.038 23.763-23.136-16.363-24.239-23.922-24.239-8.182 1.258-8.182 1.258-36.976 51.3-36.976 128.421c0 49.256 3.298 94.26 3.298 119.599 0 4.397-.232 28.319-17.463 47.412-17.244-19.093-17.474-43.015-17.474-47.412 0-25.339 3.297-70.343 3.297-119.599 0-77.121-36.978-128.421-36.978-128.421s-.622-1.258-8.181-1.258-23.921 6.137-23.921 24.239 19.983 23.136 23.763 23.136 5.659-.636 5.659-.636L76.479 331.073C59.958 410.856 0 438.712 0 438.712V93.615h79.936s5.824-48.639 48.462-79.642" fill="#fff"/></g></svg>