<svg width="12" height="20" viewBox="0 0 12 20" fill="none" xmlns="http://www.w3.org/2000/svg">
<path d="M5.79971 19.6001C4.31449 19.6001 2.89011 19.0101 1.83991 17.9599C0.789706 16.9096 0.199707 15.4853 0.199707 14.0001V4.40005C0.199707 3.33919 0.621134 2.32177 1.37128 1.57163C2.12143 0.821482 3.13884 0.400055 4.19971 0.400055C5.26057 0.400055 6.27799 0.821482 7.02813 1.57163C7.77828 2.32177 8.19971 3.33919 8.19971 4.40005V14.0001C8.19971 14.6366 7.94685 15.247 7.49676 15.6971C7.04668 16.1472 6.43623 16.4001 5.79971 16.4001C5.16319 16.4001 4.55274 16.1472 4.10265 15.6971C3.65256 15.247 3.39971 14.6366 3.39971 14.0001V6.00005C3.39971 5.78788 3.48399 5.5844 3.63402 5.43437C3.78405 5.28434 3.98753 5.20005 4.19971 5.20005C4.41188 5.20005 4.61536 5.28434 4.76539 5.43437C4.91542 5.5844 4.99971 5.78788 4.99971 6.00005V14.0001C4.99971 14.2122 5.08399 14.4157 5.23402 14.5657C5.38405 14.7158 5.58753 14.8001 5.79971 14.8001C6.01188 14.8001 6.21536 14.7158 6.36539 14.5657C6.51542 14.4157 6.59971 14.2122 6.59971 14.0001V4.40005C6.59971 3.76354 6.34685 3.15309 5.89676 2.703C5.44668 2.25291 4.83623 2.00005 4.19971 2.00005C3.56319 2.00005 2.95274 2.25291 2.50265 2.703C2.05256 3.15309 1.79971 3.76354 1.79971 4.40005V14.0001C1.79971 15.0609 2.22113 16.0783 2.97128 16.8285C3.72143 17.5786 4.73884 18.0001 5.79971 18.0001C6.86057 18.0001 7.87799 17.5786 8.62813 16.8285C9.37828 16.0783 9.79971 15.0609 9.79971 14.0001V6.00005C9.79971 5.78788 9.88399 5.5844 10.034 5.43437C10.184 5.28434 10.3875 5.20005 10.5997 5.20005C10.8119 5.20005 11.0154 5.28434 11.1654 5.43437C11.3154 5.5844 11.3997 5.78788 11.3997 6.00005V14.0001C11.3997 15.4853 10.8097 16.9096 9.7595 17.9599C8.7093 19.0101 7.28492 19.6001 5.79971 19.6001Z" fill="#004BC1"/>
</svg>
