<?xml version="1.0" encoding="UTF-8"?>
<svg width="24px" height="24px" viewBox="0 0 24 24" version="1.1" xmlns="http://www.w3.org/2000/svg" xmlns:xlink="http://www.w3.org/1999/xlink">
    <!-- Generator: Sketch 59 (86127) - https://sketch.com -->
    <title>24px/outlined/icn-rada-chronology</title>
    <desc>Created with Sketch.</desc>
    <g id="24px/outlined/icn-rada-chronology" stroke="none" stroke-width="1" fill="none" fill-rule="evenodd">
        <path d="M4,13 C6.209,13 8,14.791 8,17 C8,19.209 6.209,21 4,21 C1.791,21 0,19.209 0,17 C0,14.791 1.791,13 4,13 Z M17,18 C17.553,18 18,18.448 18,19 C18,19.552 17.553,20 17,20 L10,20 L10,18 L17,18 Z M4,15 C2.896,15 2,15.896 2,17 C2,18.104 2.896,19 4,19 C5.104,19 6,18.104 6,17 C6,15.896 5.104,15 4,15 Z M23,14 C23.553,14 24,14.448 24,15 C24,15.552 23.553,16 23,16 L10,16 L10,14 L23,14 Z M4,3 C6.209,3 8,4.791 8,7 C8,9.209 6.209,11 4,11 C1.791,11 0,9.209 0,7 C0,4.791 1.791,3 4,3 Z M19,8 C19.553,8 20,8.448 20,9 C20,9.552 19.553,10 19,10 L10,10 L10,8 L19,8 Z M4,5 C2.896,5 2,5.896 2,7 C2,8.104 2.896,9 4,9 C5.104,9 6,8.104 6,7 C6,5.896 5.104,5 4,5 Z M23,4 C23.553,4 24,4.448 24,5 C24,5.552 23.553,6 23,6 L10,6 L10,4 L23,4 Z" id="Combined-Shape" fill="#1E54A8"></path>
    </g>
</svg>