<svg xmlns="http://www.w3.org/2000/svg" width="24" height="24" viewBox="0 0 24 24">
    <path fill="#fff" fill-rule="evenodd" d="M13 22h-2a1 1 0 1 1 0-2h2a1 1 0 1 1 0 2zm-5.964-5h9.928a3.302 3.302 0 0 1-.238-.837v-.001l-1.15-8.06A3.628 3.628 0 0 0 12 5a3.628 3.628 0 0 0-3.575 3.102l-1.152 8.06a3.35 3.35 0 0 1-.237.838zM20 19H4a1 1 0 1 1 0-2c.645 0 1.201-.482 1.293-1.122l1.151-8.06C6.837 5.071 9.224 3 12 3c2.775 0 5.163 2.071 5.556 4.818l1.151 8.061C18.8 16.519 19.354 17 20 17a1 1 0 1 1 0 2z"/>
</svg>
