<?xml version="1.0" encoding="UTF-8"?>
<svg width="24px" height="24px" viewBox="0 0 24 24" version="1.1" xmlns="http://www.w3.org/2000/svg" xmlns:xlink="http://www.w3.org/1999/xlink">
    <!-- Generator: Sketch 59 (86127) - https://sketch.com -->
    <title>24px/outlined/icn-rada-results</title>
    <desc>Created with Sketch.</desc>
    <g id="24px/outlined/icn-rada-results" stroke="none" stroke-width="1" fill="none" fill-rule="evenodd">
        <path d="M19.8672,10.6211 C22.3002,11.7191 24.0002,14.1631 24.0002,17.0001 C24.0002,20.8591 20.8592,24.0001 17.0002,24.0001 C14.1632,24.0001 11.7192,22.3001 10.6212,19.8671 C11.3122,19.7641 11.9822,19.5991 12.6272,19.3731 C13.4742,20.9301 15.1062,22.0001 17.0002,22.0001 C19.7572,22.0001 22.0002,19.7571 22.0002,17.0001 C22.0002,15.1061 20.9292,13.4751 19.3732,12.6261 C19.5982,11.9831 19.7632,11.3121 19.8672,10.6211 Z M18.541,14.4512 C19.039,14.7532 19.446,15.1852 19.699,15.7152 L19.699,15.7152 L18.414,17.0002 L19.699,18.2852 C19.403,18.9042 18.904,19.4032 18.285,19.6992 L18.285,19.6992 L17,18.4142 L15.715,19.6992 C15.186,19.4462 14.753,19.0392 14.451,18.5412 C16.151,17.5652 17.566,16.1512 18.541,14.4512 Z M9,0 C13.963,0 18,4.038 18,9 C18,13.963 13.963,18 9,18 C4.037,18 0,13.963 0,9 C0,4.038 4.037,0 9,0 Z M9,2 C5.141,2 2,5.14 2,9 C2,12.86 5.141,16 9,16 C12.859,16 16,12.86 16,9 C16,5.14 12.859,2 9,2 Z M11.2848,6.0254 L12.6988,7.4394 L8.4568,11.6814 C8.0668,12.0724 7.4338,12.0724 7.0428,11.6814 L7.0428,11.6814 L4.8008,9.4394 L6.2148,8.0254 L7.7498,9.5604 L11.2848,6.0254 Z" id="Combined-Shape" fill="#1E54A8"></path>
    </g>
</svg>