<svg width="14" height="24" viewBox="0 0 14 24" fill="none" xmlns="http://www.w3.org/2000/svg">
<path fill-rule="evenodd" clip-rule="evenodd" d="M7 24C3.141 24 0 20.859 0 17L0 5C0 2.243 2.243 0 5 0C7.757 0 10 2.243 10 5V17C10 18.654 8.654 20 7 20C5.346 20 4 18.654 4 17V7C4 6.447 4.447 6 5 6C5.553 6 6 6.447 6 7V17C6 17.552 6.448 18 7 18C7.552 18 8 17.552 8 17V5C8 3.346 6.654 2 5 2C3.346 2 2 3.346 2 5V17C2 19.757 4.243 22 7 22C9.757 22 12 19.757 12 17V7C12 6.447 12.447 6 13 6C13.553 6 14 6.447 14 7V17C14 20.859 10.859 24 7 24Z" fill="#828282"/>
</svg>
