<svg xmlns="http://www.w3.org/2000/svg" width="24" height="24" viewBox="0 0 24 24">
    <path fill="#ffe358" fill-rule="evenodd" d="M12 22C6.486 22 2 17.514 2 12S6.486 2 12 2s10 4.486 10 10-4.486 10-10 10zm0-18c-4.411 0-8 3.589-8 8s3.589 8 8 8 8-3.589 8-8-3.589-8-8-8zm1 13a1 1 0 1 1-2 0 1 1 0 0 1 2 0zm-1-1.546a1 1 0 0 1-1-1V14c0-1.366.65-2.3 1.174-3.05.462-.663.826-1.186.826-1.95 0-.804-.196-1-1-1s-1 .196-1 1a1 1 0 1 1-2 0c0-1.906 1.094-3 3-3s3 1.094 3 3c0 1.392-.657 2.335-1.186 3.093-.455.653-.814 1.17-.814 1.907v.454a1 1 0 0 1-1 1z"/>
</svg>
