<?xml version="1.0" encoding="UTF-8"?>
<svg width="22px" height="22px" viewBox="0 0 22 22" version="1.1" xmlns="http://www.w3.org/2000/svg" xmlns:xlink="http://www.w3.org/1999/xlink">
    <title>1112E3C0-25FB-4ACB-8B2D-C3F8BD41FF2F</title>
    <g id="Index-Page" stroke="none" stroke-width="1" fill="none" fill-rule="evenodd" fill-opacity="1">
        <g id="Index-003-Current" transform="translate(-1232.000000, -213.000000)" fill="#FFFFFF" fill-rule="nonzero">
            <g id="UI/Header" transform="translate(230.000000, 0.000000)">
                <g id="UI/Menu/Regular" transform="translate(0.000000, 190.000000)">
                    <g id="Social" transform="translate(903.000000, 23.000000)">
                        <g id="24px/filled/icn-flicker" transform="translate(99.000000, 0.000000)">
                            <path d="M15,2 C17.7614237,2 20,4.23857625 20,7 L20,15 C20,17.7614237 17.7614237,20 15,20 L7,20 C4.23857625,20 2,17.7614237 2,15 L2,7 C2,4.23857625 4.23857625,2 7,2 L15,2 Z M11,7 C8.790861,7 7,8.790861 7,11 C7,13.209139 8.790861,15 11,15 C13.209139,15 15,13.209139 15,11 C15,8.790861 13.209139,7 11,7 Z M16,5 C15.4477153,5 15,5.44771525 15,6 C15,6.55228475 15.4477153,7 16,7 C16.5522847,7 17,6.55228475 17,6 C17,5.44771525 16.5522847,5 16,5 Z" id="Combined-Shape"></path>
                        </g>
                    </g>
                </g>
            </g>
        </g>
    </g>
</svg>