<?xml version="1.0" encoding="UTF-8"?>
<svg width="24px" height="22px" viewBox="0 0 24 22" version="1.1" xmlns="http://www.w3.org/2000/svg" xmlns:xlink="http://www.w3.org/1999/xlink">
    <!-- Generator: sketchtool 52.5 (67469) - http://www.bohemiancoding.com/sketch -->
    <title>EB812858-7E20-4CCE-9C95-DFF3171ACE41</title>
    <desc>Created with sketchtool.</desc>
    <g id="Page-1" stroke="none" stroke-width="1" fill="none" fill-rule="evenodd">
        <g id="UI/Blocks/Header" transform="translate(-1010.000000, -49.000000)" fill="#0049c0" fill-rule="nonzero">
            <g id="Dropdown---Language" transform="translate(1001.000000, 40.000000)">
                <g id="24px/outlined/icn-translation" transform="translate(9.000000, 8.000000)">
                    <path d="M12.7148,5 C12.0468,7.76 10.6948,10.061 8.6738,11.89 C9.7418,12.537 10.9468,13.095 12.3168,13.552 L11.6838,15.448 C9.9038,14.855 8.3478,14.099 7.0018,13.193 C5.6538,14.099 4.0958,14.855 2.3168,15.448 L1.6838,13.552 C3.0558,13.094 4.2758,12.542 5.3458,11.895 C3.8308,10.523 2.6798,8.895 1.9208,7 L4.0998,7 C4.7888,8.429 5.7628,9.656 7.0078,10.702 C8.7988,9.197 10.0068,7.305 10.6518,5 L-0.0002,5 L-0.0002,3 L5.9998,3 L5.9998,1 L7.9998,1 L7.9998,3 L13.9998,3 L13.9998,5 L12.7148,5 Z M14.6602,18 L19.3402,18 L17.0002,12.585 L14.6602,18 Z M21.5002,23 L20.2032,20 L13.7962,20 L12.5002,23 L10.0002,23 L16.3652,9 L17.6352,9 L24.0002,23 L21.5002,23 Z" id="Combined-Shape"></path>
                </g>
            </g>
        </g>
    </g>
</svg>