<?xml version="1.0" encoding="UTF-8"?>
<svg width="22px" height="10px" viewBox="0 0 22 10" version="1.1" xmlns="http://www.w3.org/2000/svg" xmlns:xlink="http://www.w3.org/1999/xlink">
    <!-- Generator: sketchtool 52.5 (67469) - http://www.bohemiancoding.com/sketch -->
    <title>C4B9922F-ECC8-4B17-8281-702D56B35909</title>
    <desc>Created with sketchtool.</desc>
    <g id="Page-1" stroke="none" stroke-width="1" fill="none" fill-rule="evenodd">
        <g id="UI/Blocks/Footer" transform="translate(-1058.000000, -46.000000)" fill="#004BC1" fill-rule="nonzero">
            <g id="Social-Networks" transform="translate(465.000000, 39.000000)">
                <g id="Flickr" transform="translate(592.000000, 0.000000)">
                    <g id="24px/filled/icn-flickr">
                        <path d="M6,17 C3.23857625,17 1,14.7614237 1,12 C1,9.23857625 3.23857625,7 6,7 C8.76142375,7 11,9.23857625 11,12 C11,14.7614237 8.76142375,17 6,17 Z M18,17 C15.2385763,17 13,14.7614237 13,12 C13,9.23857625 15.2385763,7 18,7 C20.7614237,7 23,9.23857625 23,12 C23,14.7614237 20.7614237,17 18,17 Z" id="Combined-Shape"></path>
                    </g>
                </g>
            </g>
        </g>
    </g>
</svg>