<?xml version="1.0" encoding="UTF-8"?>
<svg width="24px" height="24px" viewBox="0 0 24 24" version="1.1" xmlns="http://www.w3.org/2000/svg" xmlns:xlink="http://www.w3.org/1999/xlink">
    <!-- Generator: Sketch 59 (86127) - https://sketch.com -->
    <title>24px/outlined/icn-table</title>
    <desc>Created with Sketch.</desc>
    <g id="24px/outlined/icn-table" stroke="none" stroke-width="1" fill="none" fill-rule="evenodd">
        <path d="M23,3 C23.553,3 24,3.447 24,4 L24,4 L24,20 C24,20.553 23.553,21 23,21 L23,21 L1,21 C0.447,21 0,20.553 0,20 L0,20 L0,4 C0,3.447 0.447,3 1,3 L1,3 Z M22,17 L15,17 L15,19 L22,19 L22,17 Z M13,17 L6,17 L6,19 L13,19 L13,17 Z M4,17 L2,17 L2,19 L4,19 L4,17 Z M22,13 L15,13 L15,15 L22,15 L22,13 Z M4,13 L2,13 L2,15 L4,15 L4,13 Z M13,13 L6,13 L6,15 L13,15 L13,13 Z M22,9 L15,9 L15,11 L22,11 L22,9 Z M4,9 L2,9 L2,11 L4,11 L4,9 Z M13,9 L6,9 L6,11 L13,11 L13,9 Z M22,5 L15,5 L15,7 L22,7 L22,5 Z M4,5 L2,5 L2,7 L4,7 L4,5 Z M13,5 L6,5 L6,7 L13,7 L13,5 Z" id="Fill-1" fill="#1E54A8"></path>
    </g>
</svg>