<?xml version="1.0" encoding="UTF-8"?>
<svg width="20px" height="20px" viewBox="0 0 20 20" version="1.1" xmlns="http://www.w3.org/2000/svg" xmlns:xlink="http://www.w3.org/1999/xlink">
    <!-- Generator: sketchtool 52.5 (67469) - http://www.bohemiancoding.com/sketch -->
    <title>C83BC25A-5FA2-4F87-B304-149B76E8719F</title>
    <desc>Created with sketchtool.</desc>
    <g id="Page-1" stroke="none" stroke-width="1" fill="none" fill-rule="evenodd" opacity="1">
        <g id="UI/Blocks/Header" transform="translate(-1012.000000, -99.000000)" fill="#FFFFFF" fill-rule="nonzero">
            <g id="Old-Version" transform="translate(1010.000000, 97.000000)">
                <g id="24px/outlined/icn-rewind">
                    <path d="M12,2 C17.514,2 22,6.486 22,12 C22,17.514 17.514,22 12,22 L12,20 C16.411,20 20,16.411 20,12 C20,7.589 16.411,4 12,4 C7.589,4 4,7.589 4,12 C4,14.885 5.528,17.478 8,18.908 L8,16 C8,15.448 8.448,15 9,15 C9.552,15 10,15.448 10,16 L10,21 C10,21.552 9.552,22 9,22 L4,22 C3.448,22 3,21.552 3,21 C3,20.448 3.448,20 4,20 L6.026,20 C3.515,18.133 2,15.211 2,12 C2,6.486 6.486,2 12,2 Z M16,13 L12,13 C11.448,13 11,12.552 11,12 L11,6 L13,6 L13,11 L16,11 L16,13 Z" id="Fill-2"></path>
                </g>
            </g>
        </g>
    </g>
</svg>