<?xml version="1.0" encoding="UTF-8"?>
<svg width="48px" height="44px" viewBox="0 0 48 44" version="1.1" xmlns="http://www.w3.org/2000/svg" xmlns:xlink="http://www.w3.org/1999/xlink">
    <!-- Generator: sketchtool 52.5 (67469) - http://www.bohemiancoding.com/sketch -->
    <title>044C5296-B811-40CF-AB47-EAD33149B4F4</title>
    <desc>Created with sketchtool.</desc>
    <defs>
        <path d="M34,18 L14,18 C12.896,18 12,17.106 12,16 C12,14.894 12.896,14 14,14 L34,14 C35.104,14 36,14.894 36,16 C36,17.106 35.104,18 34,18 Z M26,26 L14,26 C12.896,26 12,25.106 12,24 C12,22.894 12.896,22 14,22 L26,22 C27.104,22 28,22.894 28,24 C28,25.106 27.104,26 26,26 Z M14,6 C8.486,6 4,10.4859999 4,15.9999997 L4,23.9999995 C4,29.5139994 8.486,33.9999993 14,33.9999993 C15.104,33.9999993 16,34.8939993 16,35.9999992 L16,38.8139992 L20.314,34.5739993 C20.688,34.2059993 21.192,33.9999993 21.716,33.9999993 L34,33.9999993 C39.514,33.9999993 44,29.5139994 44,23.9999995 L44,15.9999997 C44,10.4859999 39.514,6 34,6 L14,6 Z M14,45.5839996 C13.74,45.5839996 13.476,45.5339996 13.226,45.4279996 C12.484,45.1179996 12,44.3899996 12,43.5839997 L12,37.8579997 C5.224,36.8839997 0,31.0419998 0,23.9999998 L0,15.9999999 C0,8.28199995 6.28,2 14,2 L34,2 C41.72,2 48,8.28199995 48,15.9999999 L48,23.9999998 C48,31.7179998 41.72,37.9999997 34,37.9999997 L22.536,37.9999997 L15.402,45.0099996 C15.02,45.3839996 14.514,45.5839996 14,45.5839996 Z" id="path-1"></path>
    </defs>
    <g id="Index-Page" stroke="none" stroke-width="1" fill="none" fill-rule="evenodd">
        <g id="Index-003" transform="translate(-483.000000, -6323.000000)">
            <g id="UI/Blocks/Digest-Form" transform="translate(230.000000, 6251.000000)">
                <g id="24px/outlined/icn-messages" transform="translate(253.000000, 70.000000)">
                    <mask id="mask-2" fill="white">
                        <use xlink:href="#path-1"></use>
                    </mask>
                    <use id="Fill-1" fill="#ffffff" xlink:href="#path-1"></use>
                </g>
            </g>
        </g>
    </g>
</svg>