<?xml version="1.0" encoding="UTF-8"?>
<svg width="18px" height="17px" viewBox="0 0 18 17" version="1.1" xmlns="http://www.w3.org/2000/svg" xmlns:xlink="http://www.w3.org/1999/xlink">
    <!-- Generator: sketchtool 52.5 (67469) - http://www.bohemiancoding.com/sketch -->
    <title>1A87B28F-AD5E-465D-B464-9246D307D55C</title>
    <desc>Created with sketchtool.</desc>
    <g id="Index-Page" stroke="none" stroke-width="1" fill="none" fill-rule="evenodd">
        <g id="Index-003" transform="translate(-1278.000000, -3820.000000)" fill="#004BC1" fill-rule="nonzero">
            <g id="Law-Projects-Block" transform="translate(270.000000, 3586.000000)">
                <g id="Disqussion" transform="translate(805.000000, 133.000000)">
                    <g id="Item-01" transform="translate(0.000000, 95.000000)">
                        <g id="Rank" transform="translate(200.000000, 3.000000)">
                            <g id="24px/filled/icn-star">
                                <path d="M16.9080551,19.9999 C16.74182,19.9999 16.5755848,19.9604964 16.4231144,19.8816891 L12.0004134,17.5845645 L7.57771234,19.8816891 C7.2208892,20.0659277 6.78888968,20.0318489 6.46489003,19.7932972 C6.14194921,19.5536806 5.97994938,19.1500597 6.04983166,18.7517637 L6.8894778,13.914703 L3.32654052,10.484458 C3.03430555,10.2033079 2.92630567,9.77732279 3.05124671,9.38967636 C3.17512893,9.00202993 3.50865797,8.71874984 3.90995165,8.66124185 L8.84829919,7.95197668 L11.0538262,3.5398361 C11.4138258,2.8199213 12.5859422,2.8199213 12.9459418,3.5398361 L15.1514688,7.95197668 L20.0908751,8.66124185 C20.4921688,8.71874984 20.8256978,9.00202993 20.9495801,9.38967636 C21.0734623,9.77732279 20.9665212,10.2033079 20.6732274,10.484458 L17.1102901,13.914703 L17.9509951,18.7517637 C18.0198186,19.1500597 17.8588776,19.5536806 17.5348779,19.7932972 C17.349584,19.9306774 17.1293489,19.9999 16.9080551,19.9999" id="Fill-1"></path>
                            </g>
                        </g>
                    </g>
                </g>
            </g>
        </g>
    </g>
</svg>