<svg xmlns="http://www.w3.org/2000/svg" width="24" height="24" viewBox="0 0 24 24">
    <path fill="#004BC1" fill-rule="nonzero" d="M5.675 19.74A9.954 9.954 0 0 0 12 22c2.398 0 4.6-.848 6.325-2.26L12 13.414 5.675 19.74zM4.26 18.326L10.586 12 4.261 5.674A9.954 9.954 0 0 0 2 12c0 2.398.848 4.601 2.26 6.326zM5.675 4.26L12 10.586l6.325-6.326A9.954 9.954 0 0 0 12 2c-2.397 0-4.6.848-6.325 2.26zM19.74 5.674L13.414 12l6.326 6.325A9.954 9.954 0 0 0 22 12a9.954 9.954 0 0 0-2.26-6.326zM12 0c6.627 0 12 5.373 12 12s-5.373 12-12 12S0 18.627 0 12 5.373 0 12 0z" opacity=".5"/>
</svg>
