<?xml version="1.0" encoding="UTF-8"?>
<svg width="20px" height="20px" viewBox="0 0 20 20" version="1.1" xmlns="http://www.w3.org/2000/svg" xmlns:xlink="http://www.w3.org/1999/xlink">
    <title>02D2136E-A6B4-4794-8C08-A075491637C3</title>
    <g id="Index-Page" stroke="none" stroke-width="1" fill="none" fill-rule="evenodd" fill-opacity="1">
        <g id="Index-003-Current" transform="translate(-327.000000, -3242.000000)" fill="#FFFFFF" fill-rule="nonzero">
            <g id="Banners-Block-01" transform="translate(230.000000, 2987.000000)">
                <g id="Banner/Opendata/Large" transform="translate(55.000000, 45.000000)">
                    <g id="Links" transform="translate(42.000000, 112.000000)">
                        <g id="24px/outlined/icn-rewind-copy" transform="translate(0.000000, 98.000000)">
                            <path d="M10,0 C15.5225,0 20,4.4775 20,10 C20,15.5225 15.5225,20 10,20 C4.4775,20 0,15.5225 0,10 C0,4.4775 4.4775,0 10,0 Z M10,2 C5.5888,2 2,5.5888 2,10 C2,14.4112 5.5888,18 10,18 C14.4112,18 18,14.4112 18,10 C18,5.5888 14.4112,2 10,2 Z M12.8028,7.0255 L14.2168,8.4395 L9.9748,12.6815 C9.5838,13.0725 8.9508,13.0725 8.5608,12.6815 L8.5608,12.6815 L6.3188,10.4395 L7.7328,9.0255 L9.2678,10.5605 L12.8028,7.0255 Z" id="Combined-Shape"></path>
                        </g>
                    </g>
                </g>
            </g>
        </g>
    </g>
</svg>