<?xml version="1.0" encoding="UTF-8"?>
<svg width="24px" height="24px" viewBox="0 0 24 24" version="1.1" xmlns="http://www.w3.org/2000/svg" xmlns:xlink="http://www.w3.org/1999/xlink">
    <!-- Generator: sketchtool 52.5 (67469) - http://www.bohemiancoding.com/sketch -->
    <title>BEC54EFA-0A6F-4B1C-90F6-38044DBA4455</title>
    <desc>Created with sketchtool.</desc>
    <g id="Page-1" stroke="none" stroke-width="1" fill="none" fill-rule="evenodd">
        <g id="UI/Plannar-Session/Voting/Declined" transform="translate(-3.000000, -3.000000)" fill="#DB5263" fill-rule="nonzero">
            <g id="24px/outlined/icn-declined" transform="translate(3.000000, 3.000000)">
                <path d="M12,22 C17.514,22 22,17.514 22,12 C22,6.486 17.514,2 12,2 C6.486,2 2,6.486 2,12 C2,17.514 6.486,22 12,22 Z M12,0 C18.627,0 24,5.373 24,12 C24,18.627 18.627,24 12,24 C5.373,24 0,18.627 0,12 C0,5.373 5.373,0 12,0 Z M15.5352,9.8789 L13.4142,11.9999 L15.5352,14.1209 L14.1212,15.5359 L12.0002,13.4139 L9.8792,15.5359 L8.4652,14.1209 L10.5862,11.9999 L8.4652,9.8789 L9.8792,8.4639 L12.0002,10.5859 L14.1212,8.4639 L15.5352,9.8789 Z" id="Combined-Shape"></path>
            </g>
        </g>
    </g>
</svg>