<svg width="24" height="24" viewBox="0 0 24 24" fill="none" xmlns="http://www.w3.org/2000/svg">
<path d="M20 5H19V0L5 0V5H4C2.93913 5 1.92172 5.42143 1.17157 6.17157C0.421427 6.92172 0 7.93913 0 9L0 17C0 17.7956 0.316071 18.5587 0.87868 19.1213C1.44129 19.6839 2.20435 20 3 20H5V24H19V20H21C21.7956 20 22.5587 19.6839 23.1213 19.1213C23.6839 18.5587 24 17.7956 24 17V9C24 7.93913 23.5786 6.92172 22.8284 6.17157C22.0783 5.42143 21.0609 5 20 5ZM7 2H17V5H7V2ZM17 22H7V16H17V22ZM22 17C22 17.2652 21.8946 17.5196 21.7071 17.7071C21.5196 17.8946 21.2652 18 21 18H19V16C19.2652 16 19.5196 15.8946 19.7071 15.7071C19.8946 15.5196 20 15.2652 20 15C20 14.7348 19.8946 14.4804 19.7071 14.2929C19.5196 14.1054 19.2652 14 19 14H5C4.73478 14 4.48043 14.1054 4.29289 14.2929C4.10536 14.4804 4 14.7348 4 15C4 15.2652 4.10536 15.5196 4.29289 15.7071C4.48043 15.8946 4.73478 16 5 16V18H3C2.73478 18 2.48043 17.8946 2.29289 17.7071C2.10536 17.5196 2 17.2652 2 17V9C2 8.46957 2.21071 7.96086 2.58579 7.58579C2.96086 7.21071 3.46957 7 4 7H20C20.5304 7 21.0391 7.21071 21.4142 7.58579C21.7893 7.96086 22 8.46957 22 9V17Z" fill="#004BC1"/>
</svg>
