<?xml version="1.0" encoding="UTF-8"?>
<svg width="24px" height="24px" viewBox="0 0 24 24" version="1.1" xmlns="http://www.w3.org/2000/svg" xmlns:xlink="http://www.w3.org/1999/xlink">
    <title>0E275907-B4A9-4DD0-89A8-2815490D97F5</title>
    <g id="Index-Page" stroke="none" stroke-width="1" fill="none" fill-rule="evenodd" fill-opacity="0.5">
        <g id="Index-003" transform="translate(-1234.000000, -49.000000)" fill="#fff" fill-rule="nonzero">
            <g id="UI/Header" transform="translate(230.000000, 0.000000)">
                <g id="Dropdown---Language" transform="translate(995.000000, 40.000000)">
                    <g id="24px/outlined/icn-translation-copy" transform="translate(9.000000, 9.000000)">
                        <path d="M17.6352,10 L24.0002,24 L21.5002,24 L20.2032,21 L13.7962,21 L12.5002,24 L10.0002,24 L16.3652,10 L17.6352,10 Z M17.0002,13.585 L14.6602,19 L19.3402,19 L17.0002,13.585 Z M7.9998,-1.0658141e-14 L7.9998,2 L13.9998,2 L13.9998,4 L12.7148,4 C12.0468,6.76 10.6948,9.061 8.6738,10.89 C9.7418,11.537 10.9468,12.095 12.3168,12.552 L12.3168,12.552 L11.6838,14.448 C9.9038,13.855 8.3478,13.099 7.0018,12.193 C5.6538,13.099 4.0958,13.855 2.3168,14.448 L2.3168,14.448 L1.6838,12.552 C3.0558,12.094 4.2758,11.542 5.3458,10.895 C3.8308,9.523 2.6798,7.895 1.9208,6 L1.9208,6 L4.0998,6 C4.7888,7.429 5.7628,8.656 7.0078,9.702 C8.7988,8.197 10.0068,6.305 10.6518,4 L10.6518,4 L-0.0002,4 L-0.0002,2 L5.9998,2 L5.9998,-1.0658141e-14 L7.9998,-1.0658141e-14 Z" id="Combined-Shape"></path>
                    </g>
                </g>
            </g>
        </g>
    </g>
</svg>