<svg height="32" viewBox="0 0 64 64" width="32" xmlns="http://www.w3.org/2000/svg"><g id="Ballot-4" data-name="Ballot"><path d="m28 37h12a1 1 0 0 0 1-1v-12a1 1 0 0 0 -1-1h-12a1 1 0 0 0 -1 1v12a1 1 0 0 0 1 1zm1-12h10v10h-10z"/><path d="m28 20h12a1 1 0 0 0 1-1v-12a1 1 0 0 0 -1-1h-12a1 1 0 0 0 -1 1v12a1 1 0 0 0 1 1zm1-12h10v10h-10z"/><path d="m28 54h12a1 1 0 0 0 1-1v-12a1 1 0 0 0 -1-1h-12a1 1 0 0 0 -1 1v12a1 1 0 0 0 1 1zm1-12h10v10h-10z"/><path d="m11 37h12a1 1 0 0 0 1-1v-12a1 1 0 0 0 -1-1h-12a1 1 0 0 0 -1 1v12a1 1 0 0 0 1 1zm11-3.414-3.586-3.586 3.586-3.586zm-1.414 1.414h-7.172l3.586-3.586zm-3.586-6.414-3.586-3.586h7.172zm-1.414 1.414-3.586 3.586v-7.172z"/><path d="m11 20h12a1 1 0 0 0 1-1v-12a1 1 0 0 0 -1-1h-12a1 1 0 0 0 -1 1v12a1 1 0 0 0 1 1zm1-12h10v10h-10z"/><path d="m11 54h12a1 1 0 0 0 1-1v-12a1 1 0 0 0 -1-1h-12a1 1 0 0 0 -1 1v12a1 1 0 0 0 1 1zm1-12h10v10h-10z"/><path d="m45 1h-39a1 1 0 0 0 -1 1v60a1 1 0 0 0 1 1h39a1 1 0 0 0 1-1v-60a1 1 0 0 0 -1-1zm-1 60h-37v-58h37z"/><path d="m61 7h-3a1 1 0 0 0 -1 1v4h-1v-5a1 1 0 0 0 -1-1v-2a3 3 0 0 0 -6 0v2a1 1 0 0 0 -1 1v48a1 1 0 0 0 1 1h.246l1.793 6.275a1 1 0 0 0 1.922 0l1.793-6.275h.246a1 1 0 0 0 1-1v-41h1v11a1 1 0 0 0 1 1h3a1 1 0 0 0 1-1v-17a1 1 0 0 0 -1-1zm-11 1h4v46h-4zm1-4a1 1 0 0 1 2 0v2h-2zm1 54.36-.674-2.36h1.348zm8-34.36h-1v-15h1z"/><path d="m36 57h-12a1 1 0 0 0 0 2h12a1 1 0 0 0 0-2z"/><path d="m40 57h-1a1 1 0 0 0 0 2h1a1 1 0 0 0 0-2z"/></g></svg>