<svg width="20" height="20" viewBox="0 0 20 20" fill="none" xmlns="http://www.w3.org/2000/svg">
<path d="M19.121 4.97949C19.688 5.54549 20 6.29949 20 7.10049V12.8995C20 13.7005 19.688 14.4545 19.121 15.0205L15.021 19.1215C14.454 19.6875 13.701 20.0005 12.899 20.0005H7.101C6.299 20.0005 5.546 19.6875 4.979 19.1215L0.879 15.0205C0.312 14.4545 0 13.7005 0 12.8995L0 7.10049C0 6.29949 0.312 5.54549 0.879 4.97949L4.979 0.878488C5.546 0.312488 6.299 0.000488281 7.101 0.000488281H12.899C13.701 0.000488281 14.454 0.312488 15.021 0.878488L19.121 4.97949ZM18 12.8995V7.10049C18 6.83749 17.893 6.58049 17.707 6.39349L13.606 2.29349C13.42 2.10649 13.163 2.00049 12.899 2.00049H7.101C6.837 2.00049 6.58 2.10649 6.394 2.29349L2.293 6.39349C2.107 6.58049 2 6.83749 2 7.10049V12.8995C2 13.1625 2.107 13.4205 2.293 13.6065L6.394 17.7075C6.58 17.8935 6.837 18.0005 7.101 18.0005H12.899C13.163 18.0005 13.42 17.8935 13.606 17.7075L17.707 13.6065C17.893 13.4205 18 13.1625 18 12.8995ZM10 4.00009C10.552 4.00009 11 4.44709 11 5.00009V12.0001C11 12.5531 10.552 13.0001 10 13.0001C9.448 13.0001 9 12.5531 9 12.0001V5.00009C9 4.44709 9.448 4.00009 10 4.00009ZM10 14.0001C10.552 14.0001 11 14.4471 11 15.0001C11 15.5531 10.552 16.0001 10 16.0001C9.448 16.0001 9 15.5531 9 15.0001C9 14.4471 9.448 14.0001 10 14.0001Z" fill="#6D727C"/>
</svg>
