<svg xmlns="http://www.w3.org/2000/svg" width="200" height="80" viewBox="0 0 155 60">
    <g fill="none" fill-rule="evenodd">
        <path fill="#FFF" d="M31.17 21.09v-2.4h4.7v5.44a6.53 6.53 0 0 1-4.7 1.71 6.64 6.64 0 0 1-4.75-1.73 6 6 0 0 1-1.8-4.51 6 6 0 0 1 1.8-4.51 6.6 6.6 0 0 1 4.75-1.73 6.52 6.52 0 0 1 4.7 1.7L34 16.93a3.7 3.7 0 0 0-2.66-.93 3.42 3.42 0 0 0-3.6 3.6 3.43 3.43 0 0 0 3.6 3.6 10.31 10.31 0 0 0 1.56-.1v-2l-1.73-.01z"/>
        <path fill="#FFF" fill-rule="nonzero" d="M37.66 19.6a6 6 0 0 1 1.8-4.51 6.64 6.64 0 0 1 4.76-1.73A6.53 6.53 0 0 1 49 15.09a5.92 5.92 0 0 1 1.82 4.51A5.92 5.92 0 0 1 49 24.11a6.58 6.58 0 0 1-4.73 1.73 6.68 6.68 0 0 1-4.76-1.73 6 6 0 0 1-1.85-4.51zm10 0a3.39 3.39 0 0 0-3.44-3.6 3.34 3.34 0 0 0-3.43 3.6 3.35 3.35 0 0 0 3.43 3.6 3.39 3.39 0 0 0 3.45-3.6h-.01z"/>
        <path fill="#FFF" d="M65.23 13.55l-5.62 12.1h-2.78l-5.59-12.1h3.55l3.43 8.11 3.46-8.11zM65.08 22.81a1.803 1.803 0 1 1 2.55 2.55c-.706.7-1.844.7-2.55 0a1.83 1.83 0 0 1 0-2.55zM76.84 13.55h3v7.54a4.53 4.53 0 0 1-1.41 3.43 5.81 5.81 0 0 1-7.35 0 4.56 4.56 0 0 1-1.39-3.45v-7.52h3v7.54a2 2 0 0 0 2 2.11 2 2 0 0 0 2.11-2.11l.04-7.54z"/>
        <path fill="#FFF" fill-rule="nonzero" d="M91.05 25.65l-.93-2H85l-.94 2h-3.5l5.6-12.1h2.78l5.62 12.1h-3.51zm-3.5-8.16L86 21h3l-1.45-3.51zM30.64 43.65H25v1.8h-.84v-2.53c.87 0 1.38-.63 1.38-1.86v-5.81h5.05v7.64h.86v2.56h-.83l.02-1.8zm-4.15-2.58a2.3 2.3 0 0 1-.66 1.82h3.85V36h-3.19v5.07zM33.24 41.18A1.82 1.82 0 0 0 35.15 43a1.89 1.89 0 0 0 1.44-.56l.53.54a2.67 2.67 0 0 1-2 .8 2.65 2.65 0 0 1-2.79-2.81 2.85 2.85 0 0 1 .71-2 2.44 2.44 0 0 1 1.87-.76c1.54 0 2.46 1.15 2.46 3l-4.13-.03zm0-.63h3.23c-.11-1-.66-1.62-1.56-1.62a1.65 1.65 0 0 0-1.67 1.62zM38.75 38.25h.87v.46a2.65 2.65 0 0 1 3.48.29 2.79 2.79 0 0 1 .72 2 2.75 2.75 0 0 1-.75 2 2.64 2.64 0 0 1-2 .77 2.68 2.68 0 0 1-1.47-.4v3.32h-.87l.02-8.44zm.87 1.24v2.95A2 2 0 0 0 41 43a1.76 1.76 0 0 0 1.36-.55 2 2 0 0 0 .55-1.45 2 2 0 0 0-.53-1.44A1.77 1.77 0 0 0 41 39a1.9 1.9 0 0 0-1.38.49z"/>
        <path fill="#FFF" d="M50.64 43.65l-2.17-2.81v2.81h-.87v-2.82l-2.18 2.82h-1l2.22-2.85-2-2.55h1l2 2.54v-2.54h.87v2.53l2-2.53h1l-2 2.55 2.21 2.85z"/>
        <path fill="#FFF" fill-rule="nonzero" d="M56.81 43.65a1.08 1.08 0 0 1-.35 0 .88.88 0 0 1-.9-.57 2.2 2.2 0 0 1-1.55.61 1.43 1.43 0 0 1-1.55-1.47A1.45 1.45 0 0 1 53.2 41a3.43 3.43 0 0 1 1.87-.47 1.82 1.82 0 0 1 .4 0v-.66a1 1 0 0 0-1.09-1 1.8 1.8 0 0 0-1.17.44l-.48-.48a2.28 2.28 0 0 1 1.73-.68 1.71 1.71 0 0 1 1.89 1.71v2.74a.42.42 0 0 0 .46.44v.61zm-1.34-1.15v-1.36h-.35c-1 0-1.78.42-1.78 1.05a.84.84 0 0 0 .94.84 1.57 1.57 0 0 0 1.19-.53zM58.19 43.65v-5.4h2a1.36 1.36 0 0 1 1.53 1.37 1.26 1.26 0 0 1-.65 1.17 1.32 1.32 0 0 1 1 1.37 1.46 1.46 0 0 1-1.64 1.49h-2.24zm.88-3.11h1a.81.81 0 0 0 0-1.62h-1v1.62zm0 .61V43h1.16a.92.92 0 0 0 0-1.83l-1.16-.02z"/>
        <path fill="#FFF" d="M64.37 38.25v2.31h2.83v-2.31h.87v5.4h-.87v-2.38h-2.83v2.38h-.87v-5.4z"/>
        <path fill="#FFF" fill-rule="nonzero" d="M70.87 36.63a.6.6 0 0 1-.59.59.59.59 0 0 1 0-1.18.6.6 0 0 1 .59.59zm-1 7v-5.4h.88v5.4h-.88z"/>
        <path fill="#FFF" d="M79.12 42.39l.54.54a2.56 2.56 0 0 1-2 .8A2.64 2.64 0 0 1 74.9 41a2.72 2.72 0 0 1 .77-2 2.69 2.69 0 0 1 2-.76 2.58 2.58 0 0 1 2 .81l-.54.54a1.82 1.82 0 0 0-1.4-.57 2 2 0 1 0 0 4 1.8 1.8 0 0 0 1.39-.63z"/>
        <path fill="#FFF" fill-rule="nonzero" d="M85.05 43.65a1 1 0 0 1-.34 0 .88.88 0 0 1-.9-.57 2.22 2.22 0 0 1-1.55.61 1.43 1.43 0 0 1-1.55-1.47 1.46 1.46 0 0 1 .73-1.22 3.48 3.48 0 0 1 1.87-.47 1.93 1.93 0 0 1 .41 0v-.66a1 1 0 0 0-1.09-1 1.8 1.8 0 0 0-1.17.44l-.46-.46a2.28 2.28 0 0 1 1.72-.68 1.72 1.72 0 0 1 1.9 1.71v2.74a.41.41 0 0 0 .45.44l-.02.59zm-1.33-1.15v-1.36h-.36c-1 0-1.77.42-1.77 1.05a.83.83 0 0 0 .93.84 1.58 1.58 0 0 0 1.2-.53zM87.32 38.25v4l3.06-4h.7v5.4h-.87v-4l-3.06 4h-.71v-5.4h.88zm3.13-1.63a2.27 2.27 0 0 1-1.69.71 2.24 2.24 0 0 1-1.68-.72l.45-.46a1.6 1.6 0 0 0 1.23.52 1.64 1.64 0 0 0 1.24-.51l.45.46z"/>
        <path fill="#FFF" d="M94.92 39v4.7H94V39h-1.65v-.7h4.25v.7zM98.73 38.25v4l3.06-4h.71v5.4h-.88v-4l-3.05 4h-.71v-5.4zM113.13 35.25l-4.22 8.4h-1l1.46-2.65-2.92-5.76h1L109.8 40l2.36-4.71zM114.45 43.65h-.87v-5.4h.87v2.51l2.22-2.51h1l-2.29 2.55 2.49 2.85h-1l-2.43-2.79z"/>
        <path fill="#FFF" fill-rule="nonzero" d="M119.13 38.25h.87v.46a2.65 2.65 0 0 1 3.48.24 2.79 2.79 0 0 1 .72 2 2.75 2.75 0 0 1-.75 2 2.64 2.64 0 0 1-2 .77 2.68 2.68 0 0 1-1.47-.4v3.32h-.87l.02-8.39zm.87 1.24v2.95a2 2 0 0 0 1.4.51 1.76 1.76 0 0 0 1.36-.55 2 2 0 0 0 .53-1.45 2 2 0 0 0-.53-1.44 1.77 1.77 0 0 0-1.36-.51 1.9 1.9 0 0 0-1.4.49zM129.63 43.65a1.08 1.08 0 0 1-.35 0 .88.88 0 0 1-.9-.57 2.2 2.2 0 0 1-1.55.61 1.42 1.42 0 0 1-1.54-1.47A1.44 1.44 0 0 1 126 41a3.43 3.43 0 0 1 1.87-.47 1.82 1.82 0 0 1 .4 0v-.66a1 1 0 0 0-1.09-1 1.8 1.8 0 0 0-1.17.44l-.48-.48a2.28 2.28 0 0 1 1.73-.68 1.71 1.71 0 0 1 1.89 1.71v2.74a.42.42 0 0 0 .46.44l.02.61zm-1.34-1.15v-1.36h-.35c-1 0-1.78.42-1.78 1.05a.84.84 0 0 0 .94.84 1.56 1.56 0 0 0 1.19-.53zM130.94 36.53a.57.57 0 0 1-.4 1 .55.55 0 0 1-.56-.56.58.58 0 0 1 .96-.44zm.07 7.12v-5.4h.88v5.4h-.88zm1.91-6.72a.55.55 0 0 1-.56.56.56.56 0 0 1 0-1.12.55.55 0 0 1 .56.56z"/>
        <path fill="#FFF" d="M134.53 38.25v2.31h2.83v-2.31h.86v5.4h-.86v-2.38h-2.83v2.38h-.88v-5.4zM140.87 38.25v4l3-4h.71v5.4h-.87v-4l-3.06 4H140v-5.4z"/>
        <path fill="#0057B8" d="M10 10h4v20h-4z"/>
        <path fill="#FFD700" d="M10 30h4v20h-4z"/>
        <path d="M0 0h155v60H0z" opacity=".2"/>
    </g>
</svg>
