<?xml version="1.0" encoding="utf-8"?>
<!-- Generator: Adobe Illustrator 19.2.0, SVG Export Plug-In . SVG Version: 6.00 Build 0)  -->
<svg xmlns="http://www.w3.org/2000/svg" width="155" height="60" viewBox="0 0 155 60">
<style type="text/css">
	.st0{fill:#FFFFFF;}
	.st1{fill:#0057B8;}
	.st2{fill:#FFD700;}
	.st3{fill:none;}
</style>
<g>
	<path class="st0" d="M31.2,21.1v-2.4h4.7v5.4c-1.3,1.2-3,1.8-4.7,1.7c-1.7,0.1-3.5-0.5-4.8-1.7c-1.2-1.2-1.9-2.8-1.8-4.5
		c-0.1-1.7,0.6-3.3,1.8-4.5c1.3-1.2,3-1.8,4.8-1.7c1.7-0.1,3.4,0.5,4.7,1.7L34,16.9c-0.7-0.6-1.7-1-2.7-0.9
		c-1.9-0.1-3.5,1.3-3.6,3.2c0,0.1,0,0.2,0,0.4c-0.1,1.9,1.4,3.5,3.3,3.6c0.1,0,0.2,0,0.3,0c0.5,0,1,0,1.6-0.1v-2
		C32.9,21.1,31.2,21.1,31.2,21.1z"/>
	<path class="st0" d="M37.7,19.6c-0.1-1.7,0.6-3.3,1.8-4.5c1.3-1.2,3-1.8,4.8-1.7c1.8-0.1,3.5,0.5,4.8,1.7c1.2,1.2,1.9,2.8,1.8,4.5
		c0.1,1.7-0.6,3.3-1.8,4.5c-1.3,1.2-3,1.8-4.7,1.7c-1.8,0.1-3.5-0.6-4.8-1.7C38.3,22.9,37.6,21.3,37.7,19.6z M47.7,19.6
		c0.1-1.9-1.3-3.5-3.2-3.6c-0.1,0-0.2,0-0.3,0c-1.8-0.1-3.4,1.4-3.4,3.2c0,0.1,0,0.2,0,0.4c-0.1,1.8,1.2,3.5,3.1,3.6
		c0.1,0,0.2,0,0.3,0c1.9,0,3.4-1.5,3.5-3.3C47.7,19.8,47.7,19.7,47.7,19.6C47.7,19.6,47.7,19.6,47.7,19.6z"/>
	<path class="st0" d="M65.2,13.6l-5.6,12.1h-2.8l-5.6-12.1h3.5l3.4,8.1l3.5-8.1H65.2z M65.1,22.8c0.7-0.7,1.8-0.7,2.6,0
		s0.7,1.8,0,2.6c-0.7,0.7-1.8,0.7-2.6,0C64.4,24.6,64.4,23.5,65.1,22.8z M76.8,13.6h3v7.5c0,1.3-0.5,2.5-1.4,3.4
		c-2.1,1.7-5.2,1.7-7.3,0c-0.9-0.9-1.4-2.2-1.4-3.5v-7.5h3v7.5c-0.1,1.1,0.8,2,1.9,2.1c0,0,0.1,0,0.1,0c1.1,0.1,2-0.8,2.1-1.9
		c0-0.1,0-0.2,0-0.2L76.8,13.6z"/>
	<polygon class="st0" points="91.1,25.6 90.1,23.6 85,23.6 84.1,25.6 80.6,25.6 86.2,13.5 88.9,13.5 94.6,25.6 	"/>
	<polygon class="st0" points="87.6,17.5 86,21 89,21 	"/>
	<path class="st1" d="M10,10h4v20h-4V10z"/>
	<path class="st2" d="M10,30h4v20h-4V30z"/>
	<path class="st3" d="M0,0h155v60H0V0z"/>
	<g>
		<path class="st0" d="M26.9,43.4c0.5,0.3,1.2,0.5,1.9,0.5c1.1,0,1.7-0.6,1.7-1.4c0-0.8-0.4-1.2-1.5-1.6c-1.3-0.5-2.1-1.2-2.1-2.3
			c0-1.3,1-2.2,2.6-2.2c0.8,0,1.4,0.2,1.8,0.4L31,37.7c-0.3-0.1-0.8-0.4-1.5-0.4c-1.1,0-1.5,0.7-1.5,1.2c0,0.8,0.5,1.1,1.6,1.6
			c1.4,0.5,2.1,1.2,2.1,2.4c0,1.2-0.9,2.3-2.8,2.3c-0.8,0-1.6-0.2-2.1-0.5L26.9,43.4z"/>
		<path class="st0" d="M34.2,37.2v1.7h1.5v0.8h-1.5v3.1c0,0.7,0.2,1.1,0.8,1.1c0.3,0,0.5,0,0.6-0.1l0,0.8c-0.2,0.1-0.5,0.1-0.9,0.1
			c-0.5,0-0.9-0.2-1.1-0.4c-0.3-0.3-0.4-0.8-0.4-1.5v-3.2h-0.9v-0.8h0.9v-1.4L34.2,37.2z"/>
		<path class="st0" d="M40.1,44.7L40,44h0c-0.3,0.5-0.9,0.9-1.8,0.9c-1.2,0-1.8-0.8-1.8-1.7c0-1.4,1.2-2.2,3.5-2.2v-0.1
			c0-0.5-0.1-1.3-1.3-1.3c-0.5,0-1.1,0.2-1.5,0.4l-0.2-0.7c0.5-0.3,1.2-0.5,1.9-0.5c1.8,0,2.2,1.2,2.2,2.4v2.2c0,0.5,0,1,0.1,1.4
			H40.1z M40,41.7c-1.2,0-2.5,0.2-2.5,1.3c0,0.7,0.5,1,1,1c0.8,0,1.2-0.5,1.4-1c0-0.1,0.1-0.2,0.1-0.3V41.7z"/>
		<path class="st0" d="M43.9,37.2v1.7h1.5v0.8h-1.5v3.1c0,0.7,0.2,1.1,0.8,1.1c0.3,0,0.5,0,0.6-0.1l0,0.8c-0.2,0.1-0.5,0.1-0.9,0.1
			c-0.5,0-0.9-0.2-1.1-0.4c-0.3-0.3-0.4-0.8-0.4-1.5v-3.2H42v-0.8h0.9v-1.4L43.9,37.2z"/>
		<path class="st0" d="M47.1,42c0,1.4,0.9,2,2,2c0.8,0,1.2-0.1,1.6-0.3l0.2,0.8c-0.4,0.2-1,0.4-1.9,0.4c-1.8,0-2.9-1.2-2.9-2.9
			s1-3.1,2.7-3.1c1.9,0,2.4,1.7,2.4,2.7c0,0.2,0,0.4,0,0.5H47.1z M50.2,41.2c0-0.7-0.3-1.7-1.5-1.7c-1.1,0-1.5,1-1.6,1.7H50.2z"/>
		<path class="st0" d="M54.9,43.6c0.3,0.2,0.9,0.4,1.4,0.4c0.8,0,1.1-0.4,1.1-0.9c0-0.5-0.3-0.8-1.1-1.1c-1-0.4-1.5-0.9-1.5-1.6
			c0-0.9,0.8-1.7,2-1.7c0.6,0,1.1,0.2,1.4,0.4L58,39.9c-0.2-0.1-0.6-0.3-1.2-0.3c-0.6,0-1,0.4-1,0.8c0,0.5,0.3,0.7,1.1,1
			c1,0.4,1.5,0.9,1.5,1.8c0,1-0.8,1.7-2.2,1.7c-0.6,0-1.2-0.2-1.6-0.4L54.9,43.6z"/>
		<path class="st0" d="M61,37.3c0,0.4-0.3,0.6-0.7,0.6c-0.4,0-0.6-0.3-0.6-0.6c0-0.4,0.3-0.7,0.7-0.7C60.8,36.6,61,36.9,61,37.3z
			 M59.8,44.7v-5.8h1.1v5.8H59.8z"/>
		<path class="st0" d="M63.9,37.2v1.7h1.5v0.8h-1.5v3.1c0,0.7,0.2,1.1,0.8,1.1c0.3,0,0.5,0,0.6-0.1l0,0.8c-0.2,0.1-0.5,0.1-0.9,0.1
			c-0.5,0-0.9-0.2-1.1-0.4c-0.3-0.3-0.4-0.8-0.4-1.5v-3.2H62v-0.8h0.9v-1.4L63.9,37.2z"/>
		<path class="st0" d="M67.1,42c0,1.4,0.9,2,2,2c0.8,0,1.2-0.1,1.6-0.3l0.2,0.8c-0.4,0.2-1,0.4-1.9,0.4c-1.8,0-2.9-1.2-2.9-2.9
			s1-3.1,2.7-3.1c1.9,0,2.4,1.7,2.4,2.7c0,0.2,0,0.4,0,0.5H67.1z M70.2,41.2c0-0.7-0.3-1.7-1.5-1.7c-1.1,0-1.5,1-1.6,1.7H70.2z"/>
		<path class="st0" d="M72.4,43.6c0.3,0.2,0.9,0.4,1.4,0.4c0.8,0,1.1-0.4,1.1-0.9c0-0.5-0.3-0.8-1.1-1.1c-1-0.4-1.5-0.9-1.5-1.6
			c0-0.9,0.8-1.7,2-1.7c0.6,0,1.1,0.2,1.4,0.4l-0.3,0.8c-0.2-0.1-0.6-0.3-1.2-0.3c-0.6,0-1,0.4-1,0.8c0,0.5,0.3,0.7,1.1,1
			c1,0.4,1.5,0.9,1.5,1.8c0,1-0.8,1.7-2.2,1.7c-0.6,0-1.2-0.2-1.6-0.4L72.4,43.6z"/>
		<path class="st0" d="M85.1,41.7c0,2.1-1.5,3.1-2.9,3.1c-1.6,0-2.8-1.2-2.8-3c0-1.9,1.3-3.1,2.9-3.1C84,38.8,85.1,40,85.1,41.7z
			 M80.5,41.8c0,1.3,0.7,2.2,1.8,2.2c1,0,1.8-0.9,1.8-2.3c0-1-0.5-2.2-1.7-2.2C81,39.5,80.5,40.7,80.5,41.8z"/>
		<path class="st0" d="M86.5,44.7v-5h-0.8v-0.8h0.8v-0.3c0-0.8,0.2-1.6,0.7-2c0.4-0.4,0.9-0.5,1.4-0.5c0.4,0,0.7,0.1,0.9,0.2
			L89.4,37c-0.2-0.1-0.4-0.1-0.7-0.1c-0.9,0-1.1,0.8-1.1,1.7v0.3H89v0.8h-1.4v5H86.5z"/>
		<path class="st0" d="M93.6,36.6v4.8c0,1.8,0.8,2.6,1.9,2.6c1.2,0,2-0.8,2-2.6v-4.8h1.1v4.7c0,2.5-1.3,3.5-3.1,3.5
			c-1.7,0-2.9-0.9-2.9-3.5v-4.8H93.6z"/>
		<path class="st0" d="M101.3,41.5L101.3,41.5c0.2-0.2,0.4-0.5,0.5-0.7l1.7-2h1.3l-2.2,2.4l2.6,3.4h-1.3l-2-2.8l-0.5,0.6v2.2h-1
			v-8.5h1V41.5z"/>
		<path class="st0" d="M106.1,40.7c0-0.7,0-1.3,0-1.8h0.9l0,1.1h0c0.3-0.8,0.9-1.3,1.6-1.3c0.1,0,0.2,0,0.3,0v1c-0.1,0-0.2,0-0.4,0
			c-0.7,0-1.3,0.6-1.4,1.4c0,0.1,0,0.3,0,0.5v3.1h-1V40.7z"/>
		<path class="st0" d="M113.2,44.7l-0.1-0.7h0c-0.3,0.5-0.9,0.9-1.8,0.9c-1.2,0-1.8-0.8-1.8-1.7c0-1.4,1.2-2.2,3.5-2.2v-0.1
			c0-0.5-0.1-1.3-1.3-1.3c-0.5,0-1.1,0.2-1.5,0.4l-0.2-0.7c0.5-0.3,1.2-0.5,1.9-0.5c1.8,0,2.2,1.2,2.2,2.4v2.2c0,0.5,0,1,0.1,1.4
			H113.2z M113,41.7c-1.2,0-2.5,0.2-2.5,1.3c0,0.7,0.5,1,1,1c0.8,0,1.2-0.5,1.4-1c0-0.1,0.1-0.2,0.1-0.3V41.7z"/>
		<path class="st0" d="M116.9,37.3c0,0.4-0.3,0.6-0.7,0.6c-0.4,0-0.6-0.3-0.6-0.6c0-0.4,0.3-0.7,0.7-0.7
			C116.7,36.6,116.9,36.9,116.9,37.3z M115.7,44.7v-5.8h1.1v5.8H115.7z"/>
		<path class="st0" d="M118.5,40.5c0-0.6,0-1.1,0-1.6h0.9l0.1,1h0c0.3-0.6,1-1.1,1.9-1.1c0.8,0,2.1,0.5,2.1,2.5v3.5h-1.1v-3.3
			c0-0.9-0.3-1.7-1.3-1.7c-0.7,0-1.2,0.5-1.4,1.1c0,0.1-0.1,0.3-0.1,0.5v3.5h-1.1V40.5z"/>
		<path class="st0" d="M125.8,42c0,1.4,0.9,2,2,2c0.8,0,1.2-0.1,1.6-0.3l0.2,0.8c-0.4,0.2-1,0.4-1.9,0.4c-1.8,0-2.9-1.2-2.9-2.9
			s1-3.1,2.7-3.1c1.9,0,2.4,1.7,2.4,2.7c0,0.2,0,0.4,0,0.5H125.8z M128.9,41.2c0-0.7-0.3-1.7-1.5-1.7c-1.1,0-1.5,1-1.6,1.7H128.9z"
			/>
	</g>
</g>
</svg>
