<?xml version="1.0" encoding="UTF-8"?>
<svg width="24px" height="24px" viewBox="0 0 24 24" version="1.1" xmlns="http://www.w3.org/2000/svg" xmlns:xlink="http://www.w3.org/1999/xlink">
    <!-- Generator: Sketch 59.1 (86144) - https://sketch.com -->
    <title>24px/outlined/icn-flash</title>
    <desc>Created with Sketch.</desc>
    <g id="24px/outlined/icn-flash" stroke="none" stroke-width="1" fill="none" fill-rule="evenodd">
        <path d="M9.7801961,14 L7,14 C6.41495985,14 5.9548693,13.4999738 6.00345424,12.9169545 L7.00345424,0.91695452 C7.04664525,0.398662395 7.47991136,0 8,0 L14,0 C14.6505712,0 15.1279292,0.6113889 14.9701425,1.24253563 L13.2807764,8 L18,8 C18.7911658,8 19.2690074,8.87524596 18.8411785,9.54075759 L9.84117848,23.5407576 C9.24378067,24.4700431 7.80276153,23.8871729 8.01941932,22.8038839 L9.7801961,14 Z M8.92013288,2 L8.08679955,12 L11,12 C11.6310464,12 12.1043391,12.5773242 11.9805807,13.1961161 L11.0172417,18.012811 L16.1683345,10 L12,10 C11.3494288,10 10.8720708,9.3886111 11.0298575,8.75746437 L12.7192236,2 L8.92013288,2 Z" id="Icon" fill="#1E54A8"></path>
    </g>
</svg>