<?xml version="1.0" encoding="UTF-8"?>
<svg width="16px" height="16px" viewBox="0 0 16 16" version="1.1" xmlns="http://www.w3.org/2000/svg" xmlns:xlink="http://www.w3.org/1999/xlink">
    <!-- Generator: sketchtool 52.5 (67469) - http://www.bohemiancoding.com/sketch -->
    <title>7C45798D-1FF5-4921-9D0D-157B9540CB9F</title>
    <desc>Created with sketchtool.</desc>
    <g id="Page-1" stroke="none" stroke-width="1" fill="none" fill-rule="evenodd">
        <g id="UI/RSS-button" transform="translate(-7.000000, -7.000000)" fill="#333333">
            <g id="24px/outlined/icn-rss" transform="translate(3.000000, 2.000000)">
                <path d="M6.584,15.5803 C5.805,16.3603 5.805,17.6293 6.584,18.4093 C7.364,19.1883 8.633,19.1883 9.413,18.4093 C10.192,17.6293 10.192,16.3603 9.413,15.5803 C8.633,14.8003 7.364,14.8003 6.584,15.5803 Z M10.827,19.8233 C9.267,21.3833 6.73,21.3833 5.17,19.8233 C3.61,18.2633 3.61,15.7263 5.17,14.1663 C6.73,12.6063 9.267,12.6063 10.827,14.1663 C12.387,15.7263 12.387,18.2633 10.827,19.8233 Z M7.9985,8.9983 C10.0465,8.9983 12.0955,9.7783 13.6555,11.3373 C15.2145,12.8973 15.9945,14.9463 15.9945,16.9943 L13.9955,16.9943 C13.9955,15.4583 13.4105,13.9213 12.2415,12.7513 C11.0715,11.5823 9.5345,10.9973 7.9985,10.9973 L7.9985,8.9983 Z M7.9985,4.9997 C11.0715,4.9997 14.1445,6.1697 16.4835,8.5087 C18.8235,10.8487 19.9935,13.9217 19.9935,16.9947 L17.9935,16.9947 C17.9935,14.4337 17.0195,11.8727 15.0695,9.9237 C13.1205,7.9737 10.5595,6.9997 7.9985,6.9997 L7.9985,4.9997 Z" id="Combined-Shape"></path>
            </g>
        </g>
    </g>
</svg>