<svg width="24" height="19" viewBox="0 0 24 19" fill="none" xmlns="http://www.w3.org/2000/svg">
<path fill-rule="evenodd" clip-rule="evenodd" d="M20 1.99976C22.206 1.99976 24 3.79376 24 5.99976V14.9998C24 17.2058 22.206 18.9998 20 18.9998H4C1.794 18.9998 0 17.2058 0 14.9998L0 5.99976C0 3.79376 1.794 1.99976 4 1.99976H6.586L8 0.585756C8.378 0.207756 8.88 -0.000244141 9.414 -0.000244141H14.586C15.12 -0.000244141 15.622 0.207756 16 0.585756L17.414 1.99976H20ZM22 14.9998V5.99976C22 4.89676 21.103 3.99976 20 3.99976H17.414C16.88 3.99976 16.378 3.79176 16 3.41376L14.586 1.99976H9.414L8 3.41376C7.622 3.79176 7.12 3.99976 6.586 3.99976H4C2.897 3.99976 2 4.89676 2 5.99976V14.9998C2 16.1028 2.897 16.9998 4 16.9998H20C21.103 16.9998 22 16.1028 22 14.9998ZM12 4.99976C14.757 4.99976 17 7.24276 17 9.99976C17 12.7568 14.757 14.9998 12 14.9998C9.243 14.9998 7 12.7568 7 9.99976C7 7.24276 9.243 4.99976 12 4.99976ZM12 12.9998C13.654 12.9998 15 11.6538 15 9.99976C15 8.34576 13.654 6.99976 12 6.99976C10.346 6.99976 9 8.34576 9 9.99976C9 11.6538 10.346 12.9998 12 12.9998Z" fill="#004BC1"/>
</svg>
