<?xml version="1.0" encoding="UTF-8"?>
<svg width="24px" height="16px" viewBox="0 0 24 16" version="1.1" xmlns="http://www.w3.org/2000/svg" xmlns:xlink="http://www.w3.org/1999/xlink">
    <!-- Generator: sketchtool 52.5 (67469) - http://www.bohemiancoding.com/sketch -->
    <title>02E8416E-9B40-4B49-ABDB-73F89CD6B389</title>
    <desc>Created with sketchtool.</desc>
    <g id="Page-1" stroke="none" stroke-width="1" fill="none" fill-rule="evenodd">
        <g id="UI/Blocks/Footer" transform="translate(-951.000000, -43.000000)" fill="#004BC1" fill-rule="nonzero">
            <g id="Social-Networks" transform="translate(465.000000, 39.000000)">
                <g id="Youtube" transform="translate(486.000000, 0.000000)">
                    <g id="24px/filled/icn-youtube">
                        <path d="M9,16 L9,8 L16,12 L9,16 Z M23.35,6.301 C23.165,5.503 22.519,4.904 21.71,4.776 C19.846,4.481 16.164,4 12,4 C7.839,4 4.158,4.48 2.294,4.775 C1.481,4.904 0.835,5.506 0.652,6.308 C0.363,7.576 0,9 0,12 C0,15 0.36,16.482 0.648,17.707 C0.836,18.501 1.48,19.096 2.287,19.223 C4.149,19.518 7.834,20 12,20 C16.164,20 19.846,19.519 21.71,19.224 C22.519,19.096 23.165,18.497 23.35,17.699 C23.638,16.452 24,15 24,12 C24,9 23.638,7.548 23.35,6.301 Z" id="Fill-1"></path>
                    </g>
                </g>
            </g>
        </g>
    </g>
</svg>