<?xml version="1.0" encoding="UTF-8"?>
<svg width="24px" height="24px" viewBox="0 0 24 24" version="1.1" xmlns="http://www.w3.org/2000/svg" xmlns:xlink="http://www.w3.org/1999/xlink">
    <!-- Generator: sketchtool 52.5 (67469) - http://www.bohemiancoding.com/sketch -->
    <title>8E7700B0-DF46-4B83-B1D6-26017D0DEB7F</title>
    <desc>Created with sketchtool.</desc>
    <g id="Page-1" stroke="none" stroke-width="1" fill="none" fill-rule="evenodd">
        <g id="UI/Plannar-Session/Voting/Accepted" transform="translate(-3.000000, -3.000000)" fill="#61CD9C" fill-rule="nonzero">
            <g id="Accepted">
                <g id="24px/outlined/icn-accepted" transform="translate(3.000000, 3.000000)">
                    <path d="M12,22 C17.514,22 22,17.514 22,12 C22,6.486 17.514,2 12,2 C6.486,2 2,6.486 2,12 C2,17.514 6.486,22 12,22 Z M12,0 C18.627,0 24,5.373 24,12 C24,18.627 18.627,24 12,24 C5.373,24 0,18.627 0,12 C0,5.373 5.373,0 12,0 Z M16.2168,10.4395 L11.9748,14.6815 C11.5838,15.0725 10.9508,15.0725 10.5608,14.6815 L8.3188,12.4395 L9.7328,11.0255 L11.2678,12.5605 L14.8028,9.0255 L16.2168,10.4395 Z" id="Combined-Shape"></path>
                </g>
            </g>
        </g>
    </g>
</svg>