<svg xmlns="http://www.w3.org/2000/svg" xmlns:xlink="http://www.w3.org/1999/xlink" width="24" height="24" viewBox="0 0 24 24">
    <defs>
        <path id="a" d="M17 4h1a3 3 0 0 1 3 3v12a3 3 0 0 1-3 3H6a3 3 0 0 1-3-3V7a3 3 0 0 1 3-3h1V2h2v2h6V2h2v2zM5 8h14V7a1 1 0 0 0-1-1H6a1 1 0 0 0-1 1v1zm12 4h2v-2h-2v2zm0 8h1a1 1 0 0 0 1-1v-1h-2v2zm-4 0h2v-2h-2v2zm-8-2v1a1 1 0 0 0 1 1h1v-2H5zm0-6h2v-2H5v2zm4 0h2v-2H9v2zm4 0h2v-2h-2v2zm-8 4h2v-2H5v2zm4 4h2v-2H9v2zm0-4h2v-2H9v2zm8 0h2v-2h-2v2zm-4 0h2v-2h-2v2z"/>
    </defs>
    <use fill="#1E54A8" fill-rule="evenodd" xlink:href="#a"/>
</svg>
