<?xml version="1.0" encoding="UTF-8"?>
<svg width="18px" height="20px" viewBox="0 0 18 20" version="1.1" xmlns="http://www.w3.org/2000/svg" xmlns:xlink="http://www.w3.org/1999/xlink">
    <title>C69792D5-F9AC-4151-AB6D-00FC7AE18AEB</title>
    <g id="Index-Page" stroke="none" stroke-width="1" fill="none" fill-rule="evenodd">
        <g id="Index-003-Current" transform="translate(-328.000000, -3158.000000)" fill="#FFFFFF" fill-rule="nonzero">
            <g id="Banners-Block-01" transform="translate(230.000000, 2987.000000)">
                <g id="Banner/Opendata/Large" transform="translate(55.000000, 45.000000)">
                    <g id="Links" transform="translate(42.000000, 112.000000)">
                        <g id="24px/outlined/icn-rewind-copy-2" transform="translate(1.000000, 14.000000)">
                            <path d="M8.5527864,0.105572809 C8.8343139,-0.0351909363 9.1656861,-0.0351909363 9.4472136,0.105572809 L9.4472136,0.105572809 L17.4472136,4.10557281 C17.4532087,4.10857037 17.4591551,4.11161315 17.4650527,4.11470039 C17.4895206,4.12754204 17.513914,4.14170172 17.5376804,4.15684916 C17.5462228,4.1618513 17.5540142,4.16691511 17.5617045,4.17206246 C17.5917231,4.19296527 17.6210748,4.21524481 17.6491589,4.23908319 C17.7293735,4.30523676 17.7953741,4.3821974 17.8478193,4.46575157 C17.8507521,4.47216304 17.8547004,4.47854951 17.858579,4.48498716 C17.8710743,4.50426421 17.881894,4.52394073 17.8920039,4.5439081 C17.9007831,4.56224714 17.9097887,4.58127945 17.9182029,4.60066965 C17.9228687,4.61083625 17.9269748,4.62086828 17.9309127,4.63095547 C17.9405836,4.65585822 17.949543,4.68159462 17.957463,4.70786324 C17.9604518,4.71815784 17.9631898,4.72785858 17.9657807,4.73759326 C17.9719957,4.76023642 17.9774465,4.78397804 17.9820461,4.80809463 C17.9851553,4.82532393 17.9879579,4.84237215 17.9903259,4.85947368 C17.9928948,4.87712216 17.9948822,4.89508064 17.9963984,4.91321696 C17.997884,4.93170299 17.9989265,4.94972211 17.9994933,4.96775458 C17.9998246,4.97779728 18,4.98886951 18,5 L18,15 C18,15.3787721 17.7859976,15.7250352 17.4472136,15.8944272 L9.4472136,19.8944272 L9.40915144,19.9126332 C9.39725314,19.9179992 9.38524715,19.9231374 9.37314058,19.9280435 L9.4472136,19.8944272 C9.40338834,19.9163398 9.35905299,19.9347076 9.3144652,19.9496898 C9.29579977,19.9559916 9.27641819,19.9618492 9.25684939,19.9671201 C9.24174995,19.9712213 9.22703807,19.9748306 9.21232013,19.978088 C9.19784253,19.9812278 9.18283111,19.9841883 9.16773594,19.9868031 C9.14373398,19.9910301 9.12032272,19.9942002 9.09695641,19.9965167 C9.08619917,19.9975295 9.0745648,19.9984906 9.06289706,19.9992449 C9.04123453,20.0006588 9.02057377,20.0012989 8.99998874,20.0012901 C8.98009694,20.0013195 8.95910164,20.00068 8.93805472,19.9993541 C8.9254352,19.9984906 8.91380083,19.9975295 8.90220466,19.9963645 C8.87967728,19.9942002 8.85626602,19.9910301 8.83284651,19.9869839 C8.81716889,19.9841883 8.80215747,19.9812278 8.78724092,19.9779287 C8.77296193,19.9748306 8.75825005,19.9712213 8.74355338,19.9672543 C8.72358181,19.9618492 8.70420023,19.9559916 8.685032,19.9495633 C8.64094701,19.9347076 8.59661166,19.9163398 8.5527864,19.8944272 L8.62685942,19.9280435 C8.61475285,19.9231374 8.60274686,19.9179992 8.59084856,19.9126332 L8.5527864,19.8944272 L0.552786405,15.8944272 C0.214002376,15.7250352 0,15.3787721 0,15 L0,15 L0,5 C0,4.99359153 5.81385629e-05,4.98720238 0.000173839274,4.9808329 C0.000599775489,4.9572917 0.00190224003,4.93295416 0.00407156473,4.90868559 C0.00548050791,4.89183843 0.00732599607,4.87551715 0.00954963702,4.85935033 C0.0120420884,4.84237215 0.0148447333,4.82532393 0.0180820798,4.80834859 C0.0225535216,4.78397804 0.0280042669,4.76023642 0.0342681893,4.73689323 C0.0368101956,4.72785858 0.0395481869,4.71815784 0.0424333011,4.70849488 C0.0504569624,4.68159462 0.059416367,4.65585822 0.0693587325,4.63068895 C0.0730251645,4.62086828 0.0771313354,4.61083625 0.0814058426,4.60086411 C0.0902113019,4.58127945 0.0992168874,4.56224714 0.108786547,4.54358961 C0.118105984,4.52394073 0.128925728,4.50426421 0.140455293,4.4849194 C0.145299604,4.47854951 0.149247888,4.47216304 0.153264564,4.46582854 C0.204625893,4.3821974 0.270626478,4.30523676 0.350182474,4.23827807 C0.378925166,4.21524481 0.408276868,4.19296527 0.438737116,4.1723429 C0.474247407,4.1479986 0.512411028,4.1257605 0.552786405,4.10557281 L0.462319556,4.15684916 C0.486086016,4.14170172 0.510479446,4.12754204 0.535428256,4.11441434 L0.552786405,4.10557281 Z M2,6.618 L2,14.382 L8,17.382 L8,9.618 L2,6.618 Z M16,6.618 L10,9.618 L10,17.382 L16,14.382 L16,6.618 Z M9,2.118 L3.236,5 L9,7.881 L14.763,5 L9,2.118 Z" id="Combined-Shape"></path>
                        </g>
                    </g>
                </g>
            </g>
        </g>
    </g>
</svg>