<svg width="18" height="20" viewBox="0 0 18 20" fill="none" xmlns="http://www.w3.org/2000/svg">
<path d="M14 2V0L12 0V2H6V0L4 0V2H3C2.20435 2 1.44129 2.31607 0.87868 2.87868C0.316071 3.44129 0 4.20435 0 5L0 17C0 17.7956 0.316071 18.5587 0.87868 19.1213C1.44129 19.6839 2.20435 20 3 20H15C15.7956 20 16.5587 19.6839 17.1213 19.1213C17.6839 18.5587 18 17.7956 18 17V5C18 4.20435 17.6839 3.44129 17.1213 2.87868C16.5587 2.31607 15.7956 2 15 2H14ZM12 14H10V12H12V14ZM14 12H16V14H14V12ZM6 14V12H8V14H6ZM8 16V18H6V16H8ZM4 14H2V12H4V14ZM10 10V8H12V10H10ZM8 10H6V8H8V10ZM4 10H2V8H4V10ZM2 16H4V18H3C2.73478 18 2.48043 17.8946 2.29289 17.7071C2.10536 17.5196 2 17.2652 2 17V16ZM10 18V16H12V18H10ZM14 18V16H16V17C16 17.2652 15.8946 17.5196 15.7071 17.7071C15.5196 17.8946 15.2652 18 15 18H14ZM16 10H14V8H16V10ZM2 6V5C2 4.73478 2.10536 4.48043 2.29289 4.29289C2.48043 4.10536 2.73478 4 3 4H15C15.2652 4 15.5196 4.10536 15.7071 4.29289C15.8946 4.48043 16 4.73478 16 5V6H2Z" fill="#333333"/>
</svg>
