<svg width="50" height="50" xmlns="http://www.w3.org/2000/svg">
 <!-- Created with Method Draw - http://github.com/duopixel/Method-Draw/ -->

 <g>
  <title>background</title>
  <rect x="-1" y="-1" width="52" height="52" id="canvas_background" fill="#3499db"/>
  <g id="canvasGrid" display="none">
   <rect id="svg_2" width="640" height="480" x="1" y="1" stroke-width="0" fill="url(#gridpattern)"/>
  </g>
 </g>
 <g>
  <title>Layer 1</title>
  <ellipse fill="#9ad7ff" stroke="#ffffff" stroke-width="0.5" cx="25.540019" cy="25.247078" id="svg_1" rx="10" ry="11"/>
  <ellipse ry="10.441582" rx="5.703772" id="svg_26" cy="25.000001" cx="25.551977" stroke-opacity="null" stroke-width="0.5" stroke="#ffffff" fill="none"/>
  <rect fill="#cef4ff" stroke-width="0.5" x="10.170563" y="21.320198" width="30.738911" height="3.141972" id="svg_4" stroke="#ffffff"/>
  <rect fill="#9ad7ff" stroke-width="0.5" x="13.328479" y="24.49359" width="24.423077" height="4.166667" id="svg_5" stroke="#ffffff"/>
  <rect fill="#9ad7ff" stroke-width="0.5" x="5.315659" y="24.557692" width="7.948718" height="2.24359" id="svg_6" stroke="#ffffff"/>
  <rect fill="#9ad7ff" stroke-width="0.5" x="37.815658" y="24.557692" width="8.01282" height="2.24359" id="svg_7" stroke="#ffffff"/>
  <rect fill="#cef4ff" stroke-width="0.5" x="6.08489" y="26.801282" width="7.179487" height="12.24359" id="svg_8" stroke="#ffffff"/>
  <rect fill="#cef4ff" stroke-width="0.5" x="37.815917" y="26.801282" width="7.179487" height="12.24359" id="svg_9" stroke="#ffffff"/>
  <rect fill="#3499db" stroke="#ffffff" stroke-width="0.5" stroke-opacity="null" x="13.264376" y="28.660256" width="24.551282" height="10.384615" id="svg_10"/>
  <rect fill="#cef4ff" stroke-width="0.5" x="23.616942" y="28.660256" width="3.846154" height="10.320513" id="svg_11" stroke="#ffffff"/>
  <rect fill="#cef4ff" stroke-width="0.5" x="16.469505" y="28.724359" width="3.846154" height="10.320513" id="svg_12" stroke="#ffffff"/>
  <rect fill="#cef4ff" stroke-width="0.5" x="30.893864" y="28.724359" width="3.846154" height="10.320513" id="svg_13" stroke="#ffffff"/>
  <rect fill="#9ad7ff" stroke-width="0.5" x="5.251556" y="39.123087" width="9.679488" height="2.24359" id="svg_14" stroke="#ffffff"/>
  <rect fill="#9ad7ff" stroke-width="0.5" x="36.213694" y="39.123087" width="9.679488" height="2.24359" id="svg_15" stroke="#ffffff"/>
  <rect fill="#9ad7ff" stroke-width="0.5" x="14.963095" y="39.123087" width="21.153846" height="2.24359" id="svg_16" stroke="#ffffff"/>
  <line fill="none" stroke="#ffffff" stroke-width="0.5" x1="8.712973" y1="44.108974" x2="42.367063" y2="44.108974" id="svg_17" stroke-linejoin="null" stroke-linecap="null"/>
  <line fill="none" stroke="#ffffff" stroke-width="0.5" x1="16.912268" y1="47.25" x2="34.167769" y2="47.25" id="svg_18" stroke-linejoin="null" stroke-linecap="null"/>
  <rect fill="#cef4ff" stroke-width="0.5" x="22.751556" y="13.019231" width="5.576923" height="1.666667" id="svg_19" stroke="#ffffff"/>
  <path fill="#cef4ff" stroke="#ffffff" stroke-width="0.5" stroke-opacity="null" d="m25.518895,8.988481c1.474359,-0.9278 2.948719,0.9278 4.423078,0l0,1.67004c-1.474359,0.9278 -2.948718,-0.9278 -4.423078,0l0,-1.67004z" id="svg_20"/>
  <path fill="#3499db" stroke="#ffffff" stroke-width="0.5" stroke-opacity="null" d="m25.518892,7.385915c1.47436,-0.9278 2.94872,0.9278 4.42308,0l0,1.67004c-1.47436,0.9278 -2.94872,-0.9278 -4.42308,0l0,-1.67004z" id="svg_21"/>
  <line fill="none" stroke-width="0.5" stroke-opacity="null" x1="25.475914" y1="7.248676" x2="25.475914" y2="12.892348" id="svg_22" stroke-linejoin="null" stroke-linecap="null" stroke="#ffffff"/>
  <rect fill="#9ad7ff" stroke="#ffffff" stroke-width="0.5" stroke-opacity="null" x="8.456685" y="34.108974" width="2.5" height="5" id="svg_23"/>
  <rect fill="#9ad7ff" stroke="#ffffff" stroke-width="0.5" stroke-opacity="null" x="40.315659" y="34.044872" width="2.5" height="5" id="svg_24"/>
  <ellipse fill="#3499db" stroke-width="0.5" stroke-opacity="null" fill-opacity="null" cx="25.540016" cy="24.717949" id="svg_25" rx="5.73718" ry="5.73718" stroke="#ffffff"/>
  <path stroke="null" id="svg_3" d="m25.538369,20.736845c-0.192115,0.218088 -0.309199,0.503375 -0.309199,0.816696c0.011337,0.687864 0.095645,1.374903 0.103066,2.061324c0.015254,0.641072 -0.176862,1.242978 -0.410616,1.830455c-0.077918,0.162226 -0.16202,0.320948 -0.246328,0.480082l-0.247359,-0.049884c-0.223241,-0.044525 -0.368359,-0.261582 -0.323628,-0.484823c0.038959,-0.195207 0.210873,-0.331873 0.402577,-0.331873l0.090286,0.009688l-0.201391,-1.68204c-0.065756,-0.74826 -0.452048,-1.405823 -1.020355,-1.832517c-0.097707,-0.073383 -0.201391,-0.140582 -0.309199,-0.199742l0,5.971655l1.378613,0c0.103066,0.558619 0.411028,1.047152 0.843906,1.381087c0.10286,0.07091 0.18923,0.164494 0.251275,0.273744c0.06184,-0.10925 0.148209,-0.202834 0.251275,-0.273744c0.432878,-0.334759 0.74084,-0.822262 0.843906,-1.381087l1.378613,0l0,-5.971655c-0.107807,0.05916 -0.211492,0.126359 -0.309199,0.199742c-0.568925,0.427312 -0.954393,1.084256 -1.020355,1.832517l-0.201391,1.68204l0.090286,-0.009688c0.191703,0.000825 0.363617,0.13646 0.402577,0.331873c0.044525,0.223241 -0.100593,0.440093 -0.323628,0.484823l-0.247359,0.049884c-0.084308,-0.158928 -0.168616,-0.31765 -0.246328,-0.480082c-0.23396,-0.587065 -0.426076,-1.188971 -0.410822,-1.830455c0.007421,-0.688482 0.091729,-1.374903 0.103066,-2.061324c0,-0.313321 -0.117083,-0.597784 -0.309199,-0.816696l-0.003092,0zm-2.061324,1.477969c0.266735,0.313115 0.445864,0.702911 0.49884,1.132285l0.164906,1.387271c-0.211286,0.105128 -0.371038,0.298067 -0.431641,0.531615l-0.233548,0l0,-3.050759l0.001443,-0.000412zm4.122647,0l0,3.050759l-0.233548,0c-0.060191,-0.233342 -0.220355,-0.426282 -0.431641,-0.531615l0.164906,-1.387271c0.053388,-0.428961 0.232517,-0.81917 0.49884,-1.132491l0.001443,0.000618zm-2.061324,2.788971c0.110693,0.362175 0.263025,0.707034 0.452461,1.026127c-0.18016,0.054625 -0.33682,0.160989 -0.452461,0.304251c-0.11564,-0.143262 -0.272301,-0.24942 -0.452461,-0.304458c0.189436,-0.319711 0.341767,-0.663746 0.452461,-1.025921zm-2.061324,0.674877l0.233548,0c0.073589,0.284669 0.2958,0.509353 0.577171,0.58789l0.198093,0.045143c-0.052976,0.192115 -0.082041,0.393713 -0.082041,0.603968l-0.927596,0l0,-1.236794l0.000825,-0.000206zm3.889718,0l0.233548,0l0,1.236794l-0.927596,0c0,-0.209018 -0.029065,-0.411646 -0.082041,-0.603968l0.198093,-0.045143c0.282401,-0.078536 0.504406,-0.303427 0.577171,-0.58789l0.000825,0.000206zm-2.477711,0.727647c0.250039,0.035249 0.442772,0.24942 0.442772,0.508941l-0.515331,0c0,-0.176655 0.026179,-0.347127 0.072559,-0.508941zm1.298016,0c0.04638,0.161814 0.072559,0.331873 0.072559,0.508941l-0.515331,0c0,-0.259933 0.192734,-0.473692 0.442772,-0.508941zm-1.32337,0.921412l0.468539,0l0,0.867817c-0.226746,-0.238083 -0.391651,-0.535944 -0.468539,-0.867817zm0.880804,0l0.468539,0c-0.075857,0.331873 -0.241175,0.630147 -0.468539,0.867817l0,-0.867817z" fill="#ffffff"/>
 </g>
</svg>