<?xml version="1.0" encoding="UTF-8"?>
<svg width="269px" height="85px" viewBox="0 0 269 85" version="1.1" xmlns="http://www.w3.org/2000/svg" xmlns:xlink="http://www.w3.org/1999/xlink">
    <title>680D6772-3438-468C-AF16-9BE49421D9AB</title>
    <defs>
        <filter x="-11.8%" y="-60.0%" width="123.6%" height="220.0%" filterUnits="objectBoundingBox" id="filter-1">
            <feOffset dx="0" dy="4" in="SourceAlpha" result="shadowOffsetOuter1"></feOffset>
            <feGaussianBlur stdDeviation="5" in="shadowOffsetOuter1" result="shadowBlurOuter1"></feGaussianBlur>
            <feColorMatrix values="0 0 0 0 0   0 0 0 0 0   0 0 0 0 0  0 0 0 0.2 0" type="matrix" in="shadowBlurOuter1" result="shadowMatrixOuter1"></feColorMatrix>
            <feMerge>
                <feMergeNode in="shadowMatrixOuter1"></feMergeNode>
                <feMergeNode in="SourceGraphic"></feMergeNode>
            </feMerge>
        </filter>
    </defs>
    <g id="Index-Page" stroke="none" stroke-width="1" fill="none" fill-rule="evenodd">
        <g id="Index-003-Current" transform="translate(-305.000000, -5348.000000)" fill="#FFFFFF">
            <g id="Banners-Block-02" transform="translate(230.000000, 5283.000000)">
                <g id="Banner/Opendata/Large" transform="translate(55.000000, 45.000000)">
                    <g id="Group-11" filter="url(#filter-1)" transform="translate(40.000000, 40.000000)">
                        <path d="M154.5,30 L129,30 L129,14.625 L143.8125,14.625 C149.705625,14.625 154.5,19.419375 154.5,25.3125 L154.5,30 Z M143.8125,9.75 L124.125,9.75 L124.125,34.875 L159.375,34.875 L159.375,25.3125 C159.375,16.731375 152.393625,9.75 143.8125,9.75 L143.8125,9.75 Z" id="Fill-1"></path>
                        <path d="M223.875,34.875 L223.875,37.5 L223.875,39.75 L219,39.75 L219,37.5 L219,37.3125 C219,34.107375 216.392625,31.5 213.1875,31.5 L183.75,31.5 L183.75,34.875 L183.75,39.75 L178.875,39.75 L124.125,39.75 L119.25,39.75 L104.625,39.75 L99.75,39.75 L99.75,37.5 L99.75,37.3125 C99.75,34.107375 97.142625,31.5 93.9375,31.5 L64.5,31.5 L64.5,39.75 L59.625,39.75 L59.625,25.3125 C59.625,14.043375 68.793375,4.875 80.0625,4.875 L104.625,4.875 L104.625,34.875 L119.25,34.875 L119.25,4.875 L143.8125,4.875 C155.082,4.875 164.25,14.043375 164.25,25.3125 L164.25,34.875 L178.875,34.875 L178.875,25.3125 C178.875,14.043375 188.043,4.875 199.3125,4.875 L223.875,4.875 L223.875,34.875 Z M54,11.0625 C54,22.332 44.831625,31.5 33.5625,31.5 L15.5625,31.5 C12.357375,31.5 9.75,34.107375 9.75,37.3125 L9.75,39.75 L4.875,39.75 L4.875,37.3125 L4.875,34.875 L4.875,4.875 L54,4.875 L54,11.0625 Z M223.875,0 L199.3125,0 C185.355,0 174,11.355 174,25.3125 L174,30 L169.125,30 L169.125,25.3125 C169.125,11.355 157.77,0 143.8125,0 L119.25,0 L114.375,0 L114.375,4.875 L114.375,30 L109.5,30 L109.5,4.875 L109.5,0 L104.625,0 L80.0625,0 C71.19675,0 63.38625,4.5855 58.86375,11.505 C58.866375,11.35725 58.875,11.211 58.875,11.0625 L58.875,4.875 L58.875,0 L54,0 L4.875,0 L0,0 L0,4.875 L0,34.875 L0,37.3125 L0,39.75 L0,44.625 L4.875,44.625 L9.75,44.625 L14.625,44.625 L14.625,39.75 L14.625,37.3125 C14.625,36.795375 15.04575,36.375 15.5625,36.375 L33.5625,36.375 C42.42825,36.375 50.23875,31.7895 54.76125,24.87 C54.758625,25.01775 54.75,25.164 54.75,25.3125 L54.75,39.75 L54.75,44.625 L59.625,44.625 L64.5,44.625 L69.375,44.625 L69.375,39.75 L69.375,36.375 L93.9375,36.375 C94.45425,36.375 94.875,36.795375 94.875,37.3125 L94.875,37.5 L94.875,39.75 L94.875,44.625 L99.75,44.625 L104.625,44.625 L119.25,44.625 L124.125,44.625 L178.875,44.625 L183.75,44.625 L188.625,44.625 L188.625,39.75 L188.625,36.375 L213.1875,36.375 C213.704625,36.375 214.125,36.795375 214.125,37.3125 L214.125,37.5 L214.125,39.75 L214.125,44.625 L219,44.625 L223.875,44.625 L228.75,44.625 L228.75,39.75 L228.75,37.5 L228.75,34.875 L228.75,4.875 L228.75,0 L223.875,0 Z" id="Fill-3"></path>
                        <path d="M94.875,21.7782 C94.56375,21.75945 94.251,21.750075 93.9375,21.750075 L69.9855,21.750075 C71.455875,17.60295 75.41775,14.625075 80.0625,14.625075 L94.875,14.625075 L94.875,21.7782 Z M64.5,25.312575 L64.5,26.625075 L93.9375,26.625075 C96.0795,26.625075 98.076,27.258075 99.75,28.34745 L99.75,9.750075 L80.0625,9.750075 C71.481375,9.750075 64.5,16.73145 64.5,25.312575 L64.5,25.312575 Z" id="Fill-5"></path>
                        <path d="M214.125,21.7782 C213.81375,21.75945 213.501,21.750075 213.1875,21.750075 L189.2355,21.750075 C190.705875,17.60295 194.66775,14.625075 199.3125,14.625075 L214.125,14.625075 L214.125,21.7782 Z M183.75,25.312575 L183.75,26.625075 L213.1875,26.625075 C215.3295,26.625075 217.325625,27.258075 219,28.34745 L219,9.750075 L199.3125,9.750075 C190.731375,9.750075 183.75,16.73145 183.75,25.312575 L183.75,25.312575 Z" id="Fill-7"></path>
                        <path d="M14.625,14.625 L43.6395,14.625 C42.169125,18.772125 38.20725,21.75 33.5625,21.75 L15.5625,21.75 C15.249,21.75 14.93625,21.759375 14.625,21.778125 L14.625,14.625 Z M33.5625,26.625 C42.143625,26.625 49.125,19.643625 49.125,11.0625 L49.125,9.75 L9.75,9.75 L9.75,28.347375 C11.424,27.258 13.4205,26.625 15.5625,26.625 L33.5625,26.625 Z" id="Fill-9"></path>
                    </g>
                </g>
            </g>
        </g>
    </g>
</svg>